<svg width="40" height="40" viewBox="0 0 40 40" fill="none" xmlns="http://www.w3.org/2000/svg">
<path d="M20 37.5C17.0909 37.5003 14.2276 36.7754 11.6691 35.3909C9.11067 34.0063 6.93771 32.0058 5.34681 29.5703C3.7559 27.1348 2.79725 24.3411 2.55756 21.4419C2.31786 18.5427 2.80469 15.6295 3.97401 12.9658C5.14332 10.3021 6.95823 7.97187 9.25458 6.18596C11.5509 4.40004 14.2563 3.21475 17.1259 2.7373C19.9955 2.25986 22.9389 2.50532 25.6898 3.45148C28.4407 4.39764 30.9124 6.01465 32.8812 8.15625C32.9978 8.27591 33.0892 8.41773 33.1501 8.57332C33.2109 8.72891 33.24 8.89512 33.2355 9.06213C33.231 9.22914 33.1931 9.39356 33.124 9.54567C33.0549 9.69777 32.956 9.83448 32.8331 9.94771C32.7103 10.0609 32.566 10.1484 32.4088 10.2049C32.2516 10.2614 32.0846 10.2859 31.9178 10.2768C31.751 10.2676 31.5877 10.2252 31.4375 10.1519C31.2874 10.0786 31.1535 9.97594 31.0437 9.85C28.5489 7.14452 25.1431 5.45524 21.4795 5.10612C17.8159 4.75699 14.1524 5.7726 11.1914 7.95818C8.2305 10.1438 6.18061 13.3455 5.43485 16.9493C4.68909 20.5532 5.29997 24.3055 7.15033 27.4867C9.00069 30.6679 11.9603 33.054 15.4616 34.1875C18.9628 35.3211 22.7593 35.1222 26.123 33.629C29.4867 32.1359 32.1808 29.4535 33.6886 26.0964C35.1965 22.7393 35.4119 18.9437 34.2937 15.4375C34.1926 15.1217 34.2211 14.7787 34.3728 14.4839C34.5246 14.1892 34.7873 13.9667 35.1031 13.8656C35.4189 13.7645 35.7619 13.793 36.0566 13.9448C36.3514 14.0966 36.5738 14.3592 36.675 14.675C37.5132 17.2991 37.7201 20.084 37.2788 22.8032C36.8376 25.5224 35.7606 28.099 34.1356 30.3234C32.5105 32.5477 30.3833 34.3571 27.927 35.6041C25.4707 36.8512 22.7547 37.5008 20 37.5Z" fill="#2D9CDB"/>
<path d="M28.5874 21.25H17.3374C17.0059 21.25 16.6879 21.1183 16.4535 20.8839C16.2191 20.6495 16.0874 20.3315 16.0874 20C16.0874 19.6685 16.2191 19.3505 16.4535 19.1161C16.6879 18.8817 17.0059 18.75 17.3374 18.75H28.5874C28.9189 18.75 29.2369 18.8817 29.4713 19.1161C29.7057 19.3505 29.8374 19.6685 29.8374 20C29.8374 20.3315 29.7057 20.6495 29.4713 20.8839C29.2369 21.1183 28.9189 21.25 28.5874 21.25Z" fill="#DF4545"/>
<path d="M16.7124 26.5562C16.3814 26.5548 16.0645 26.4222 15.8311 26.1875L10.5249 20.8812C10.2921 20.647 10.1614 20.3302 10.1614 20C10.1614 19.6698 10.2921 19.3529 10.5249 19.1187L15.8311 13.8125C16.0657 13.5779 16.3838 13.4462 16.7155 13.4462C17.0472 13.4462 17.3653 13.5779 17.5999 13.8125C17.8344 14.047 17.9662 14.3652 17.9662 14.6969C17.9662 15.0286 17.8344 15.3467 17.5999 15.5812L13.1811 20L17.5999 24.4187C17.7762 24.5936 17.8964 24.817 17.9452 25.0604C17.9941 25.3038 17.9693 25.5563 17.8741 25.7856C17.7789 26.0149 17.6175 26.2107 17.4106 26.3479C17.2037 26.4852 16.9606 26.5577 16.7124 26.5562Z" fill="#DF4545"/>
</svg>
