<svg width="40" height="40" viewBox="0 0 40 40" fill="none" xmlns="http://www.w3.org/2000/svg">
<g clip-path="url(#clip0_5_2)">
<path d="M39.2308 18.3974C38.3974 20.0641 36.859 21.4103 35 21.9231C36.5385 25.5769 36.7308 29.6795 35.1923 33.3333C37.9487 32.4359 40 29.8718 40 26.7949V21.282C40 20.3205 39.6795 19.359 39.2308 18.3974Z" fill="#087fc4"/>
<path d="M33.141 14.2308H14.8718C11.0897 14.2308 7.94872 17.3077 7.94872 21.0897V25.7692H26.5385H33.141C35.8333 25.7692 38.2692 27.4359 39.359 29.7436C39.8718 28.5897 40 27.6923 40 26.6026V21.0897C40 17.3077 36.9231 14.2308 33.141 14.2308Z" fill="#2D9CDB"/>
<path d="M9.87179 20L17.5641 12.3077V2.43588L0 20L17.5641 37.5641V27.6923L9.87179 20Z" fill="#087fc4"/>
<path d="M0.128204 20L17.5641 37.5641V27.6923L10 20L17.5641 12.3077" fill="#2D9CDB"/>
</g>
<defs>
<clipPath id="clip0_5_2">
<rect width="40" height="40" fill="white"/>
</clipPath>
</defs>
</svg>
