<svg width="45" height="45" viewBox="0 0 45 45" fill="none" xmlns="http://www.w3.org/2000/svg">
<g clip-path="url(#clip0_7_2)">
<path d="M41.2462 41.25H7.49625V45H44.9962V39.375H41.2462V41.25Z" fill="#DF4545"/>
<path d="M34.5225 0H7.49625V16.875H11.2462V3.75H29.9962V15H41.2462V20.625H44.9962V10.4737L34.5225 0ZM33.7462 11.25V4.52625L40.47 11.25H33.7462Z" fill="#DF4545"/>
<path d="M11.2444 37.5V22.5H7.49625V29.8612L3.74625 22.5H0V37.5H3.74625V29.8387L7.49625 37.5H11.2444Z" fill="#DF4545"/>
<path d="M22.4962 22.5V37.5H26.2462L28.1212 33.75L29.9962 37.5H33.7462V22.5H29.9962V30L28.1212 26.25L26.2462 30V22.5H22.4962Z" fill="#DF4545"/>
<path d="M20.6212 26.25V22.5H16.8712H14.9962H13.1212V37.5H14.9962H16.8712H20.6212V33.75H16.8712V31.875H18.7462V28.125H16.8712V26.25H20.6212Z" fill="#DF4545"/>
<path d="M39.3712 22.5C37.4962 22.5 35.6212 24.375 35.6212 27.1875C35.6212 30 37.4962 31.875 39.3712 31.875H40.4081C41.6119 31.875 41.49 33.75 40.4081 33.75H35.6212V37.5H40.6331C40.6331 37.5 44.9962 37.5 44.9962 32.8125C44.9962 28.125 42.3206 28.125 40.4456 28.125C39.0094 28.125 39.03 26.25 40.4456 26.25H44.9962V22.5H41.2462H39.3712Z" fill="#DF4545"/>
</g>
<defs>
<clipPath id="clip0_7_2">
<rect width="44.9962" height="45" fill="white"/>
</clipPath>
</defs>
</svg>
