<svg width="46" height="46" viewBox="0 0 46 46" fill="none" xmlns="http://www.w3.org/2000/svg">
<path fill-rule="evenodd" clip-rule="evenodd" d="M45.0249 33.8499C45.0111 40.0631 39.9631 45.0887 33.7499 45.0749L11.25 45.0249C5.03686 45.0111 0.0112119 39.9631 0.0250198 33.7499L0.0750229 11.25C0.0888309 5.03679 5.13686 0.0111935 11.35 0.0250014L33.8499 0.0750045C40.0631 0.0888125 45.0887 5.1368 45.0749 11.35L45.0249 33.8499ZM33.1374 24.1645C34.018 23.2878 34.0212 21.8631 33.1445 20.9825L24.1645 11.9625C23.7435 11.5396 23.1717 11.3013 22.575 11.3C21.9783 11.2986 21.4053 11.5344 20.9825 11.9554L11.9626 20.9354C11.082 21.8121 11.0788 23.2368 11.9555 24.1174C12.8322 24.998 14.2568 25.0011 15.1374 24.1245L20.3079 18.9769L20.28 31.5449C20.2772 32.7876 21.2823 33.7972 22.525 33.7999C23.7676 33.8027 24.7772 32.7976 24.78 31.5549L24.8079 18.9869L29.9554 24.1574C30.8322 25.038 32.2568 25.0411 33.1374 24.1645Z" fill="#2D9CDB"/>
</svg>
