<svg width="76" height="77" viewBox="0 0 76 77" fill="none" xmlns="http://www.w3.org/2000/svg">
<g clip-path="url(#clip0_2_2)">
<path fill-rule="evenodd" clip-rule="evenodd" d="M55.4665 27.0515C54.8145 30.3865 54.0739 34.736 51.8495 34.736C51.6025 34.7281 51.3589 34.675 51.1304 34.5795C50.3784 36.4355 49.496 40.3515 48.4971 42.2357C45.7308 44.0428 43.3848 46.437 41.6213 49.2527C39.8578 52.0685 38.7189 55.2387 38.2833 58.5442C37.8478 61.8497 38.1259 65.2115 39.0985 68.3974C40.0712 71.5832 41.7151 74.5171 43.9167 76.9961H0.101273C0.101273 76.9961 2.02943 66.1896 5.41854 65.47C26.6749 60.9512 27.9359 48.9134 27.9359 48.9134V42.7065C26.8281 41.089 25.8558 36.5972 25.0379 34.5769C24.8095 34.6724 24.5659 34.7253 24.3189 34.7334C22.0919 34.7334 21.3538 30.3864 20.7018 27.0489C20.3487 25.6765 20.3401 24.2364 20.6765 22.8597C20.6765 22.702 20.6499 22.5416 20.6499 22.3852C20.6499 10.4756 25.2608 1.42626 35.5547 0.167961C35.5547 0.167961 37.2081 0.0794636 37.9677 0.0307221C38.5247 0.0768983 40.6188 0.167961 40.6188 0.167961C50.9127 1.42626 55.5235 10.4756 55.5235 22.3852C55.5235 22.5416 55.4994 22.702 55.4969 22.8597C55.8321 24.2377 55.8217 25.6787 55.4665 27.0515ZM38.0816 0.00637454C38.2996 -0.0265617 38.5216 0.0274703 38.7011 0.157079C38.8805 0.286688 39.0033 0.481771 39.0436 0.701259C39.0839 0.920747 39.0385 1.14752 38.9171 1.33383C38.7957 1.52014 38.6077 1.65146 38.3927 1.70014C38.1776 1.74881 37.9523 1.71101 37.7641 1.59476C37.576 1.47851 37.4398 1.29288 37.384 1.07688C37.3283 0.860888 37.3575 0.63137 37.4654 0.436724C37.5733 0.242078 37.7516 0.0974708 37.9627 0.0333056C37.7702 0.0179136 37.7588 0.00637454 38.0816 0.00637454Z" fill="#FF5454"/>
<path fill-rule="evenodd" clip-rule="evenodd" d="M60.7116 46.2159C63.7163 46.2159 66.6536 47.1186 69.152 48.8099C71.6503 50.5012 73.5975 52.9051 74.7473 55.7176C75.8972 58.5302 76.198 61.625 75.6118 64.6108C75.0257 67.5965 73.5788 70.3392 71.4541 72.4918C69.3294 74.6444 66.6224 76.1103 63.6754 76.7042C60.7285 77.2981 57.6738 76.9933 54.8978 75.8283C52.1218 74.6634 49.7491 72.6906 48.0798 70.1594C46.4104 67.6281 45.5195 64.6522 45.5195 61.608C45.5195 57.5257 47.1201 53.6107 49.9691 50.7241C52.8182 47.8375 56.6824 46.2159 60.7116 46.2159ZM53.2738 64.1733H58.3378V69.304C58.3378 69.9843 58.6047 70.6368 59.0795 71.1179C59.5543 71.599 60.1983 71.8693 60.8699 71.8693C61.5414 71.8693 62.1854 71.599 62.6602 71.1179C63.1351 70.6368 63.4019 69.9843 63.4019 69.304V64.1733H68.4659C69.1375 64.1733 69.7815 63.903 70.2563 63.4219C70.7312 62.9408 70.998 62.2883 70.998 61.608C70.998 60.9276 70.7312 60.2751 70.2563 59.794C69.7815 59.3129 69.1375 59.0426 68.4659 59.0426H63.4019V53.9119C63.4019 53.2316 63.1351 52.5791 62.6602 52.098C62.1854 51.6169 61.5414 51.3466 60.8699 51.3466C60.1983 51.3466 59.5543 51.6169 59.0795 52.098C58.6047 52.5791 58.3378 53.2316 58.3378 53.9119V59.0426H53.2738C52.6023 59.0426 51.9583 59.3129 51.4834 59.794C51.0086 60.2751 50.7418 60.9276 50.7418 61.608C50.7418 62.2883 51.0086 62.9408 51.4834 63.4219C51.9583 63.903 52.6023 64.1733 53.2738 64.1733Z" fill="#2d9cdb"/>
</g>
<defs>
<clipPath id="clip0_2_2">
<rect width="76" height="77" fill="white"/>
</clipPath>
</defs>
</svg>
