<svg width="18" height="18" viewBox="0 0 18 18" fill="none" xmlns="http://www.w3.org/2000/svg">
<path d="M2.16475 1.49482C2.02295 1.50987 1.88838 1.56502 1.77681 1.65382C1.66524 1.74262 1.58129 1.86138 1.53481 1.99619C1.48833 2.13099 1.48123 2.27625 1.51435 2.41495C1.54748 2.55364 1.61945 2.68002 1.72184 2.77927L15.2196 16.2826C15.2894 16.3524 15.3723 16.4079 15.4635 16.4457C15.5547 16.4835 15.6525 16.503 15.7512 16.503C15.8499 16.503 15.9477 16.4836 16.0389 16.4458C16.1302 16.4081 16.2131 16.3527 16.2829 16.2829C16.3527 16.213 16.4081 16.1301 16.4458 16.0389C16.4836 15.9477 16.5031 15.8499 16.503 15.7512C16.503 15.6524 16.4835 15.5547 16.4457 15.4635C16.4079 15.3722 16.3525 15.2894 16.2826 15.2196L2.77929 1.72181C2.7007 1.63995 2.60456 1.57699 2.49811 1.53768C2.39166 1.49836 2.27768 1.4837 2.16475 1.49482Z" fill="#FF5454"/>
<path d="M15.7345 1.49483C15.5399 1.50081 15.3553 1.58221 15.2196 1.72182L1.72182 15.2196C1.64833 15.2882 1.58939 15.3708 1.54847 15.4627C1.50756 15.5545 1.48551 15.6536 1.48365 15.7541C1.48179 15.8545 1.50014 15.9544 1.53762 16.0477C1.5751 16.1409 1.63094 16.2257 1.70183 16.297C1.77272 16.3682 1.8572 16.4245 1.95027 16.4625C2.04334 16.5004 2.14309 16.5193 2.24359 16.518C2.3441 16.5166 2.44331 16.4951 2.53533 16.4547C2.62735 16.4142 2.71031 16.3557 2.77927 16.2826L16.2826 2.77928C16.3901 2.67356 16.4632 2.5379 16.4924 2.39001C16.5216 2.24212 16.5056 2.08885 16.4465 1.95019C16.3873 1.81153 16.2877 1.69392 16.1607 1.6127C16.0337 1.53147 15.8852 1.4904 15.7345 1.49483Z" fill="#FF5454"/>
</svg>
