<svg width="36" height="38" viewBox="0 0 36 38" fill="none" xmlns="http://www.w3.org/2000/svg">
<path d="M34.258 17.2725H12.9153L18.0705 12.1607C18.7508 11.4862 18.7508 10.3926 18.0705 9.71802C17.3903 9.04346 16.2873 9.04346 15.607 9.71802L7.47823 17.7784C6.79795 18.4528 6.79795 19.5465 7.47823 20.2211L15.607 28.2819C15.9472 28.6192 16.3929 28.7879 16.8387 28.7879C17.2844 28.7878 17.7303 28.6192 18.0704 28.2821C18.7505 27.6075 18.7506 26.5139 18.0704 25.8393L12.9149 20.7271H34.258C35.2201 20.7271 36 19.9537 36 18.9998C36 18.0459 35.2201 17.2725 34.258 17.2725Z" fill="#FF5454"/>
<path d="M16.8387 34.5455H3.48387V3.45455H16.8387C17.8007 3.45455 18.5806 2.68119 18.5806 1.72727C18.5806 0.773358 17.8007 0 16.8387 0H1.74194C0.779922 0 0 0.773358 0 1.72727V36.2727C0 37.2266 0.779922 38 1.74194 38H16.8387C17.8007 38 18.5806 37.2266 18.5806 36.2727C18.5806 35.3188 17.8007 34.5455 16.8387 34.5455Z" fill="#2d9cdb"/>
</svg>
