<svg width="15" height="15" viewBox="0 0 15 15" fill="none" xmlns="http://www.w3.org/2000/svg">
<path d="M12.9375 13.3125L1.68751 2.06248C1.63189 2.00186 1.56428 1.95346 1.48896 1.92035C1.41365 1.88724 1.33228 1.87015 1.25001 1.87015C1.16774 1.87015 1.08636 1.88724 1.01105 1.92035C0.935737 1.95346 0.868126 2.00186 0.812506 2.06248C0.706526 2.15353 0.638222 2.28075 0.620892 2.41939C0.603562 2.55803 0.638448 2.69815 0.718756 2.81248L2.84376 4.96873L3.68751 13.5C3.70305 13.6547 3.7757 13.798 3.89127 13.902C4.00684 14.0061 4.15703 14.0633 4.31251 14.0625H10.6875C10.843 14.0633 10.9932 14.0061 11.1087 13.902C11.2243 13.798 11.297 13.6547 11.3125 13.5V13.4375L12.0625 14.1875C12.1181 14.2481 12.1857 14.2965 12.261 14.3296C12.3364 14.3627 12.4177 14.3798 12.5 14.3798C12.5823 14.3798 12.6636 14.3627 12.739 14.3296C12.8143 14.2965 12.8819 14.2481 12.9375 14.1875C12.9981 14.1319 13.0465 14.0643 13.0796 13.9889C13.1127 13.9136 13.1298 13.8323 13.1298 13.75C13.1298 13.6677 13.1127 13.5863 13.0796 13.511C13.0465 13.4357 12.9981 13.3681 12.9375 13.3125Z" fill="#DF4545"/>
<path d="M13.4375 2.75C13.4415 2.93456 13.3744 3.1136 13.25 3.25C13.1346 3.36776 12.9773 3.43515 12.8125 3.4375H4.93747L3.68747 2.1875H5.31247V1.5625C5.31247 1.39674 5.37832 1.23777 5.49553 1.12056C5.61274 1.00335 5.77171 0.9375 5.93747 0.9375H9.06247C9.22823 0.9375 9.3872 1.00335 9.50441 1.12056C9.62162 1.23777 9.68747 1.39674 9.68747 1.5625V2.1875H12.7812C12.9402 2.18587 13.0943 2.242 13.215 2.34545C13.3357 2.44891 13.4148 2.59266 13.4375 2.75V2.75Z" fill="#DF4545"/>
<path d="M11.5 4.68751H6.125L11.6562 10.125L12.125 5.37501C12.1338 5.28784 12.1241 5.19979 12.0966 5.1166C12.0692 5.0334 12.0245 4.95691 11.9656 4.89208C11.9067 4.82725 11.8348 4.77554 11.7545 4.7403C11.6743 4.70505 11.5876 4.68707 11.5 4.68751V4.68751Z" fill="#DF4545"/>
</svg>
